<svg class="prerender-cloud-flying-pup-logo" xmlns="http://www.w3.org/2000/svg" viewBox="0 0 853 1000" width="853" height="1000">
  <style>.flying-pup-path { fill: url(#flying-pup-gradient); }</style>
  <linearGradient id="flying-pup-gradient" gradientUnits="userSpaceOnUse" x1="731" y1="83" x2="-42" y2="779">
    <stop offset="0" stop-color="#C25"/>
    <stop offset="1" stop-color="#19F"/>
  </linearGradient>
  <path class="flying-pup-path" d="M204 335c-28 0-47 1-76-12-5-2-10 3-8 8 27 72 100 85 163 85 6 0 8 8 3 11-12 7-24 13-47 11-5 0-9 6-5 9.6 28 37 109 29 145 11 5-3 11 3 8 8-23 37-91 37-124 30h-4c-23 10-50 16-76 16-134 0-139-186-169-186-34 0-10 251 185 242 4 0 7 4 6 8-13 48 6 114 43 138 3 2 4 5 3 7-10.8 28-47 66-67 78-28 16 12 81-37 156-18 28 10.7 43 30 43 21 0 77-20 86-69.6 6-32-4-61-4-78 0-39 83-55 132-102 40.7-39 49-64 56-99 12-63 171-102 194-193 1-4-2-8-6-8h-16c-7 0-8-9-2-12 23-9 56-19.7 84-19.7 20 0 50 42 100 42 44 0 56-27 51-40.6-6-14-100.7-99-126-99-25 0-58 5-83 8-45 5-93-57 62-130.8 40-19 48-102 32-110-15-7-63 6-73-1-10-7-28-53-72-82C572-8 432 1 407 65c0 1-1 2-2 3-30.7 21-158 97-99 147 47 40 84 39 115 20 12-7 23-17 33-28 5-5 13 0 10 6-6 15-17 32-35 48-1 1-2 3-2 5 2 26-7 49-14 61-2 4-8 4-11 0-29-46-99-92-148-92-47 0-109.6-18-142-53-4-4-10-2-10 4-3 85 49 119 104 137 6 2 4.3 12-3 12z"/>
</svg>